HIERARCHY
ROOT ui
{
	 OFFSET 0 0 0
	 CHANNELS 3 XPosition YPosition Z Position
	 EndSite
	 {
	 OFFSET 0 -1 0
	 }
}
ROOT li
{
	 OFFSET 0 0 0
	 CHANNELS 3 XPosition YPosition Z Position
	 EndSite
	 {
	 OFFSET 0 -1 0
	 }
}
ROOT ul
{
	 OFFSET 0 0 0
	 CHANNELS 3 XPosition YPosition Z Position
	 EndSite
	 {
	 OFFSET 0 -1 0
	 }
}
ROOT ll
{
	 OFFSET 0 0 0
	 CHANNELS 3 XPosition YPosition Z Position
	 EndSite
	 {
	 OFFSET 0 -1 0
	 }
}
ROOT tt
{
	 OFFSET 0 0 0
	 CHANNELS 3 XPosition YPosition Z Position
	 EndSite
	 {
	 OFFSET 0 -1 0
	 }
}
ROOT tb
{
	 OFFSET 0 0 0
	 CHANNELS 3 XPosition YPosition Z Position
	 EndSite
	 {
	 OFFSET 0 -1 0
	 }
}
ROOT td
{
	 OFFSET 0 0 0
	 CHANNELS 3 XPosition YPosition Z Position
	 EndSite
	 {
	 OFFSET 0 -1 0
	 }
}
ROOT v
{
	 OFFSET 0 0 0
	 CHANNELS 3 XPosition YPosition Z Position
	 EndSite
	 {
	 OFFSET 0 -1 0
	 }
}
ROOT bn
{
	 OFFSET 0 0 0
	 CHANNELS 3 XPosition YPosition Z Position
	 EndSite
	 {
	 OFFSET 0 -1 0
	 }
}
MOTION
Frames: 10
Frame Time: 0.002
-0.019044456481933595	0.005369275093078613	0		0.5942465209960938	-2.70101220703125	0		-1.0141104736328126	0.17605513000488282	0		-0.3700435791015625	-3.316741455078125	0		2.73314892578125	-1.6990367431640625	0		3.80700439453125	-0.6095602416992187	0		4.86995556640625	-0.27900799560546874	0		6.011462890625	0.5246551513671875	0		-0.1849151153564453	5.898720703125	0		
-0.00975665283203125	-0.003315174102783203	0		0.6176044921875	-2.70585546875	0		-0.9547689819335937	0.17177525329589843	0		-0.3397039794921875	-3.32367529296875	0		2.730593505859375	-1.695556640625	0		3.79547509765625	-0.6029652099609375	0		4.86041162109375	-0.27342681884765624	0		6.0100517578125	0.5421519775390625	0		-0.20169010925292968	5.88933984375	0		
-0.005414967060089111	-0.007935214042663574	0		0.5930914306640624	-2.70013037109375	0		-1.031259521484375	0.18209390258789063	0		-0.37422210693359376	-3.31884228515625	0		2.739173828125	-1.6811983642578125	0		3.798302978515625	-0.56652783203125	0		4.86797802734375	-0.2590362548828125	0		6.0182470703125	0.5255440673828125	0		-0.2202983856201172	5.89398681640625	0		
0.005161067008972168	0.006378911972045899	0		0.5955894775390626	-2.694716064453125	0		-0.9428193969726563	0.18448570251464844	0		-0.3727529296875	-3.31642578125	0		2.731638916015625	-1.6776455078125	0		3.80265087890625	-0.572104248046875	0		4.84747705078125	-0.251310302734375	0		6.017853515625	0.5430466918945313	0		-0.22193244934082032	5.89543994140625	0		
-0.010288843154907227	0.017003015518188478	0		0.5990947875976562	-2.690307861328125	0		-0.9542830200195312	0.19405374145507812	0		-0.3722763671875	-3.314991943359375	0		2.7333564453125	-1.654194091796875	0		3.817309814453125	-0.5527940673828124	0		4.84691162109375	-0.2508130798339844	0		6.00828125	0.5436607055664062	0		-0.22255848693847657	5.89588720703125	0		
0.018887443542480467	-0.006892324924468994	0		0.6214959106445312	-2.697116943359375	0		-0.9548259887695313	0.19449832153320312	0		-0.37582080078125	-3.317506591796875	0		2.7159375	-1.6445164794921876	0		3.812972900390625	-0.5352586059570312	0		4.838466796875	-0.24222048950195313	0		6.01264111328125	0.536113525390625	0		-0.20421527099609374	5.8911171875	0		
-0.012559236526489258	-0.0010751969814300538	0		0.575249267578125	-2.676120361328125	0		-0.9553348999023438	0.19494522094726563	0		-0.3562532958984375	-3.313288330078125	0		2.72356103515625	-1.634131103515625	0		3.807564208984375	-0.5267116088867188	0		4.84304296875	-0.23478106689453124	0		6.0119306640625	0.5196234130859375	0		-0.22371507263183593	5.8967919921875	0		
0.012972132682800293	-9.245489835739136E-4	0		0.5857330322265625	-2.68178955078125	0		-0.9558033447265625	0.19539166259765625	0		-0.3896563720703125	-3.3094521484375	0		2.6962724609375	-1.6193411865234375	0		3.7911494140625	-0.5220405883789062	0		4.8226728515625	-0.22605538940429687	0		6.00755322265625	0.5281717529296875	0		-0.2232408905029297	5.89623291015625	0		
-0.005458868980407715	-0.0012643539905548096	0		0.5743319091796875	-2.68120703125	0		-1.026173828125	0.20065110778808593	0		-0.3510099182128906	-3.305459716796875	0		2.71110693359375	-1.598048583984375	0		3.818103759765625	-0.48988104248046876	0		4.8204404296875	-0.2095494384765625	0		6.0122216796875	0.5366049194335938	0		-0.22172596740722655	5.894658203125	0		
0.027239671707153322	0.0047944231033325195	0		0.58623388671875	-2.658901123046875	0		-0.94840966796875	0.21217910766601564	0		-0.40506484985351565	-3.279390380859375	0		2.68695849609375	-1.579310546875	0		3.761764404296875	-0.4867625427246094	0		4.8159912109375	-0.21603053283691406	0		6.01475634765625	0.5290491943359374	0		-0.240209716796875	5.88831103515625	0		
